<?xml version="1.0" encoding="UTF-8"?>
<svg version="1.1" xmlns="http://www.w3.org/2000/svg" width="256" height="256">
<path d="M0 0 C8.32024846 6.70417592 16.3088341 13.60023439 21.57421875 23.07421875 C21.57421875 23.73421875 21.57421875 24.39421875 21.57421875 25.07421875 C22.23421875 25.07421875 22.89421875 25.07421875 23.57421875 25.07421875 C34.94660812 49.62611689 38.04413237 73.16478513 28.57421875 99.07421875 C23.81409332 109.86092499 16.41514404 119.10376745 8.44921875 127.69921875 C-2.23967496 139.24718893 -9.52083013 152.9308059 -16.3984375 166.97265625 C-17.67859266 169.58444241 -18.99354015 172.17031751 -20.359375 174.73828125 C-29.92725072 192.89599391 -36.49054968 212.53541534 -42.765625 232.02929688 C-43.63338657 234.71730386 -44.52738806 237.39631598 -45.42578125 240.07421875 C-46.41578125 240.07421875 -47.40578125 240.07421875 -48.42578125 240.07421875 C-48.5959375 239.51774658 -48.76609375 238.96127441 -48.94140625 238.38793945 C-54.34488611 220.81764808 -60.22584843 203.5433106 -68.05078125 186.88671875 C-68.39866699 186.14526611 -68.74655273 185.40381348 -69.10498047 184.63989258 C-71.41559053 179.85008948 -74.02104314 175.30233873 -76.78857422 170.76293945 C-79.81153492 165.79845001 -82.73726997 160.77648747 -85.67578125 155.76171875 C-86.2996875 154.70404297 -86.92359375 153.64636719 -87.56640625 152.55664062 C-88.16453125 151.53505859 -88.76265625 150.51347656 -89.37890625 149.4609375 C-89.91676758 148.54530029 -90.45462891 147.62966309 -91.00878906 146.6862793 C-92.35866606 144.19793781 -93.43450627 141.72309922 -94.42578125 139.07421875 C-95.08578125 139.07421875 -95.74578125 139.07421875 -96.42578125 139.07421875 C-97.49236169 137.53494925 -98.47709031 135.93881775 -99.42578125 134.32421875 C-102.1360468 129.92003723 -105.05729069 125.99727788 -108.42578125 122.07421875 C-123.74997597 104.02933999 -131.00592328 82.69403493 -129.17578125 59.04296875 C-126.57429474 36.55869244 -115.96955492 16.45117945 -98.125 2.2421875 C-70.10826744 -18.26766935 -28.67000736 -21.28320998 0 0 Z M-81.30078125 37.01171875 C-90.15031186 47.31275967 -92.47477489 58.52695127 -91.6640625 71.89501953 C-90.63578529 81.29912036 -86.30017161 90.52882944 -79.42578125 97.07421875 C-78.76578125 97.07421875 -78.10578125 97.07421875 -77.42578125 97.07421875 C-77.42578125 97.73421875 -77.42578125 98.39421875 -77.42578125 99.07421875 C-65.61896247 107.93467046 -55.1174998 110.97605415 -40.42578125 110.07421875 C-37.20626736 109.45092871 -34.40512519 108.42895667 -31.42578125 107.07421875 C-30.56984375 106.69910156 -29.71390625 106.32398437 -28.83203125 105.9375 C-23.81907983 103.60058 -20.11250016 101.28761179 -16.42578125 97.07421875 C-15.49765625 96.18734375 -14.56953125 95.30046875 -13.61328125 94.38671875 C-11.19671463 92.36259726 -11.19671463 92.36259726 -11.42578125 90.07421875 C-10.76578125 90.07421875 -10.10578125 90.07421875 -9.42578125 90.07421875 C-8.60973126 88.15906085 -7.79807493 86.24203041 -6.98828125 84.32421875 C-6.53582031 83.256875 -6.08335937 82.18953125 -5.6171875 81.08984375 C-1.96100257 71.83550025 -2.00445799 59.75786369 -5.390625 50.37109375 C-10.96535486 38.00150447 -18.91614578 29.53739752 -31.42578125 24.07421875 C-50.03863473 17.59729943 -68.07347029 22.94011135 -81.30078125 37.01171875 Z " fill="#0B6BB5" transform="translate(175.42578125,14.92578125)"/>
<path d="M0 0 C6.35892473 5.33074038 9.56474158 10.71780097 10.93359375 18.90625 C11.0625 21.8125 11.0625 21.8125 10.0625 29.8125 C-4.4575 29.8125 -18.9775 29.8125 -33.9375 29.8125 C-33.2775 31.7925 -32.6175 33.7725 -31.9375 35.8125 C-29.16504986 35.94737595 -26.39912912 36.04650807 -23.625 36.125 C-22.44647461 36.1878418 -22.44647461 36.1878418 -21.24414062 36.25195312 C-19.03806472 36.29889091 -17.09063773 36.30523897 -14.9375 35.8125 C-14.27234375 34.575 -14.27234375 34.575 -13.59375 33.3125 C-13.0471875 32.4875 -12.500625 31.6625 -11.9375 30.8125 C-8.20831134 30.13850205 -4.52394313 30.34562221 -0.75 30.5 C0.28576172 30.52255859 1.32152344 30.54511719 2.38867188 30.56835938 C4.94806404 30.62733154 7.50455951 30.70957433 10.0625 30.8125 C10.10661413 32.24451238 10.13800225 33.67692033 10.1640625 35.109375 C10.18291504 35.90698242 10.20176758 36.70458984 10.22119141 37.52636719 C9.88382082 42.3865798 6.71973591 45.15526409 3.4375 48.4375 C-4.0605749 54.25535361 -12.26333679 55.43975252 -21.5 55.25 C-22.47646484 55.25708984 -23.45292969 55.26417969 -24.45898438 55.27148438 C-34.39759101 55.18506171 -42.69296891 52.86034698 -49.9375 45.8125 C-56.19325783 37.45943608 -56.00952385 26.80974565 -54.9375 16.8125 C-52.43070504 8.2103447 -46.70332594 2.12684774 -38.9375 -2.1875 C-26.87253831 -6.70462165 -11.2059273 -7.32219532 0 0 Z M-32.9375 15.8125 C-32.9375 16.4725 -32.9375 17.1325 -32.9375 17.8125 C-26.0075 17.8125 -19.0775 17.8125 -11.9375 17.8125 C-13.4375 13.8125 -13.4375 13.8125 -15.9375 12.8125 C-18.05893022 12.66382834 -20.18605992 12.5911711 -22.3125 12.5625 C-23.45460938 12.53671875 -24.59671875 12.5109375 -25.7734375 12.484375 C-29.17652409 12.83728768 -30.55787591 13.39770905 -32.9375 15.8125 Z " fill="#DBDBDB" transform="translate(149.9375,54.1875)"/>
</svg>
